<svg xmlns="http://www.w3.org/2000/svg" version="1.1" xmlns:xlink="http://www.w3.org/1999/xlink" xmlns:svgjs="http://svgjs.dev/svgjs" width="2000" height="1286" viewBox="0 0 2000 1286"><g transform="matrix(1,0,0,1,-0.3481862204408799,0.5206477732792791)"><svg viewBox="0 0 384 247" data-background-color="#0a1627" preserveAspectRatio="xMidYMid meet" height="1286" width="2000" xmlns="http://www.w3.org/2000/svg" xmlns:xlink="http://www.w3.org/1999/xlink"><g id="tight-bounds" transform="matrix(1,0,0,1,0.06685209110793267,-0.09999999999999432)"><svg viewBox="0 0 383.8662857142857 247.2" height="247.2" width="383.8662857142857"><g><svg viewBox="0 0 383.8662857142857 247.2" height="247.2" width="383.8662857142857"><g><svg viewBox="0 0 383.8662857142857 247.2" height="247.2" width="383.8662857142857"><g><svg viewBox="0 0 383.8662857142857 247.2" height="247.2" width="383.8662857142857" id="textblock"><g><svg viewBox="0 0 383.8662857142857 247.2" height="247.2" width="383.8662857142857"><g transform="matrix(1,0,0,1,0,0)"><svg width="383.8662857142857" viewBox="2.700000047683716 -35 54.349998474121094 35" height="247.2" data-palette-color="#ba052e"><g class="undefined-text-0" data-fill-palette-color="primary" id="text-0"><path d="M6.2 0L2.7 0 2.7-35 6.5-35 15-17.8 23.45-35 27.3-35 27.3 0 23.8 0 23.8-28.15 16.3-13 13.7-13 6.2-28.1 6.2 0ZM37.75 0L34.25 0 34.25-35 37.75-35 37.75-18.5 52.35-35 56.9-35 41.45-17.6 41.45-17.4 57.05 0 52.35 0 37.75-16.25 37.75 0Z" fill="#ba052e" data-fill-palette-color="primary"></path></g></svg></g></svg></g></svg></g></svg></g></svg></g><defs></defs></svg><rect width="383.8662857142857" height="247.2" fill="none" stroke="none" visibility="hidden"></rect></g></svg></g></svg>